<svg width="180" height="208" viewBox="0 0 180 208" fill="none" xmlns="http://www.w3.org/2000/svg">
<g opacity="0.3" clip-path="url(#clip0_3118_1873)">
<path d="M179.535 13.2982H0.364942C0.254944 13.2982 0.149433 13.2542 0.0716525 13.1759C-0.0061276 13.0975 -0.0498047 12.9912 -0.0498047 12.8804C-0.0498047 12.7696 -0.0061276 12.6634 0.0716525 12.585C0.149433 12.5067 0.254944 12.4626 0.364942 12.4626H179.535C179.645 12.4626 179.751 12.5067 179.829 12.585C179.906 12.6634 179.95 12.7696 179.95 12.8804C179.95 12.9912 179.906 13.0975 179.829 13.1759C179.751 13.2542 179.645 13.2982 179.535 13.2982Z" fill="#CACACA"/>
<path d="M16.1187 7.44919C18.1902 7.44919 19.8694 5.75764 19.8694 3.67101C19.8694 1.58437 18.1902 -0.107178 16.1187 -0.107178C14.0473 -0.107178 12.368 1.58437 12.368 3.67101C12.368 5.75764 14.0473 7.44919 16.1187 7.44919Z" fill="#3F3D56"/>
<path d="M29.0755 7.44919C31.147 7.44919 32.8262 5.75764 32.8262 3.67101C32.8262 1.58437 31.147 -0.107178 29.0755 -0.107178C27.0041 -0.107178 25.3248 1.58437 25.3248 3.67101C25.3248 5.75764 27.0041 7.44919 29.0755 7.44919Z" fill="#3F3D56"/>
<path d="M42.0319 7.44919C44.1034 7.44919 45.7826 5.75764 45.7826 3.67101C45.7826 1.58437 44.1034 -0.107178 42.0319 -0.107178C39.9605 -0.107178 38.2812 1.58437 38.2812 3.67101C38.2812 5.75764 39.9605 7.44919 42.0319 7.44919Z" fill="#3F3D56"/>
<path d="M34.5127 77.7139C30.1541 77.7139 25.8934 76.4119 22.2694 73.9727C18.6453 71.5335 15.8207 68.0665 14.1528 64.0102C12.4848 59.9538 12.0484 55.4904 12.8987 51.1842C13.7489 46.878 15.8478 42.9225 18.9297 39.8179C22.0117 36.7133 25.9384 34.5991 30.2132 33.7425C34.488 32.8859 38.919 33.3255 42.9458 35.0057C46.9726 36.6859 50.4144 39.5311 52.8359 43.1817C55.2574 46.8323 56.5499 51.1243 56.5499 55.5148C56.5434 61.4003 54.2195 67.0428 50.0881 71.2045C45.9568 75.3662 40.3553 77.7072 34.5127 77.7139ZM34.5127 34.1515C30.3182 34.1515 26.2178 35.4044 22.7302 37.7519C19.2426 40.0993 16.5243 43.4358 14.9191 47.3394C13.3139 51.2431 12.8939 55.5386 13.7122 59.6827C14.5305 63.8268 16.5504 67.6334 19.5164 70.6211C22.4823 73.6088 26.2612 75.6435 30.3752 76.4678C34.4891 77.2921 38.7533 76.869 42.6285 75.2521C46.5038 73.6351 49.816 70.8969 52.1463 67.3837C54.4767 63.8705 55.7205 59.7401 55.7204 55.5148C55.7141 49.8509 53.4776 44.4208 49.5018 40.4158C45.5259 36.4108 40.1354 34.158 34.5127 34.1515Z" fill="#CACACA"/>
<path d="M33.2847 189.016C38.9446 189.016 43.5328 184.394 43.5328 178.693C43.5328 172.991 38.9446 168.369 33.2847 168.369C27.6249 168.369 23.0366 172.991 23.0366 178.693C23.0366 184.394 27.6249 189.016 33.2847 189.016Z" fill="#E4E4E4"/>
<path d="M27.5921 182.519L27.5814 182.133C28.2939 182.113 28.922 182.068 29.394 181.721C29.5278 181.616 29.6378 181.485 29.7165 181.334C29.7951 181.183 29.8407 181.017 29.85 180.847C29.8583 180.743 29.8427 180.639 29.8044 180.542C29.7661 180.445 29.7062 180.358 29.6292 180.289C29.4509 180.18 29.2467 180.121 29.0382 180.12C28.8297 180.118 28.6245 180.173 28.4443 180.278L28.1274 180.425L28.7351 175.951L29.1145 176.004L28.5977 179.809C28.8092 179.73 29.0371 179.705 29.2605 179.738C29.4838 179.77 29.6956 179.858 29.8764 179.994C29.9981 180.101 30.0936 180.235 30.1554 180.385C30.2172 180.536 30.2436 180.698 30.2327 180.861C30.2215 181.089 30.1608 181.312 30.055 181.515C29.9491 181.717 29.8006 181.894 29.6199 182.032C29.0134 182.479 28.2253 182.501 27.5921 182.519Z" fill="#2F2E41"/>
<path d="M33.0535 176.332H30.991V176.718H33.0535V176.332Z" fill="#2F2E41"/>
<path d="M26.5432 176.332H24.4806V176.718H26.5432V176.332Z" fill="#2F2E41"/>
<path d="M31.7425 172.026C29.27 173.735 25.4726 172.793 24.352 169.905C24.0785 169.202 23.9565 168.449 23.994 167.695C24.0316 166.941 24.2279 166.204 24.57 165.533C24.9796 164.829 25.5373 164.225 26.2038 163.762C26.8704 163.3 27.6295 162.99 28.4278 162.854C30.548 162.412 32.7401 163.006 34.6782 163.869C34.748 163.906 34.8274 163.92 34.9056 163.91C34.9837 163.9 35.0569 163.866 35.1153 163.813C36.9664 162.326 39.656 162.971 41.554 164.011C43.6067 165.172 45.3427 166.826 46.6075 168.826C47.8973 170.81 48.7032 173.072 48.9595 175.429C49.194 177.976 48.7811 180.541 47.7596 182.883C46.738 185.225 45.1416 187.266 43.1206 188.815C42.7532 189.092 43.1124 189.723 43.4847 189.442C45.5255 187.924 47.1636 185.922 48.2543 183.614C49.345 181.306 49.8548 178.763 49.7386 176.21C49.6225 173.656 48.8839 171.171 47.5882 168.973C46.2925 166.776 44.4795 164.933 42.3093 163.609C40.0326 162.229 36.8596 161.488 34.6051 163.299L35.0423 163.242C33.1039 162.378 30.9801 161.769 28.8439 162.052C27.0294 162.293 25.2466 163.169 24.2062 164.73C23.7492 165.447 23.4495 166.253 23.3269 167.096C23.2044 167.938 23.262 168.797 23.4958 169.616C23.7239 170.425 24.1353 171.169 24.6978 171.791C25.2603 172.412 25.9584 172.893 26.737 173.196C27.6095 173.547 28.5531 173.681 29.4878 173.587C30.4225 173.492 31.3209 173.172 32.1066 172.653C32.4871 172.39 32.1267 171.76 31.7425 172.026Z" fill="#2F2E41"/>
<path d="M34.0016 69.0439C39.5885 69.0439 44.1176 64.4816 44.1176 58.8537C44.1176 53.2259 39.5885 48.6636 34.0016 48.6636C28.4147 48.6636 23.8856 53.2259 23.8856 58.8537C23.8856 64.4816 28.4147 69.0439 34.0016 69.0439Z" fill="#E4E4E4"/>
<path d="M31.6139 63.1313C30.9582 63.113 30.1421 63.0901 29.5134 62.6274C29.3261 62.484 29.1723 62.3011 29.0627 62.0915C28.953 61.8819 28.8902 61.6507 28.8786 61.414C28.8672 61.2459 28.8946 61.0773 28.9586 60.9216C29.0227 60.7658 29.1216 60.6271 29.2476 60.5163C29.4349 60.3754 29.6543 60.2841 29.8857 60.2505C30.1171 60.217 30.3531 60.2423 30.5722 60.3242L30.0369 56.3829L30.4299 56.3286L31.0593 60.9621L30.7311 60.8104C30.5444 60.7009 30.3319 60.6441 30.1159 60.6461C29.8999 60.648 29.6884 60.7086 29.5037 60.8214C29.424 60.8937 29.3619 60.9835 29.3222 61.0838C29.2826 61.1841 29.2664 61.2923 29.2751 61.4C29.2847 61.5761 29.3318 61.7481 29.4133 61.9042C29.4948 62.0603 29.6088 62.1969 29.7474 62.3047C30.2366 62.6647 30.8872 62.7111 31.6249 62.7319L31.6139 63.1313Z" fill="#2F2E41"/>
<path d="M28.0932 56.7229H25.9567V57.1225H28.0932V56.7229Z" fill="#2F2E41"/>
<path d="M34.8371 56.7229H32.7006V57.1225H34.8371V56.7229Z" fill="#2F2E41"/>
<path d="M34.9402 51.3212C33.7111 52.9403 31.76 54.0265 29.6979 53.7693C28.7411 53.6703 27.8398 53.269 27.1231 52.6228C26.4064 51.9766 25.9109 51.1187 25.7076 50.1717C25.5301 49.2384 25.578 48.2759 25.8472 47.3651C26.1163 46.4544 26.5988 45.6222 27.2541 44.9386C28.644 43.466 30.6333 42.6738 32.6023 42.4022C34.4641 42.1815 36.3512 42.3594 38.1401 42.9242C39.929 43.4889 41.5793 44.4278 42.9831 45.6795C44.3994 46.9066 45.5298 48.433 46.2941 50.1502C47.0303 51.8546 47.381 53.7027 47.3206 55.5605C47.2717 57.4082 46.8512 59.2268 46.0847 60.9062C45.3182 62.5856 44.2216 64.0909 42.8611 65.3312C42.519 65.6326 42.1609 65.9152 41.7884 66.1775C41.4742 66.3996 41.1765 65.8801 41.4881 65.66C42.8744 64.64 44.0419 63.3485 44.9207 61.8629C45.7995 60.3773 46.3715 58.7283 46.6022 57.0146C46.8609 55.2974 46.7456 53.544 46.2642 51.8762C45.7829 50.2083 44.9471 48.6659 43.8149 47.356C42.6716 46.0429 41.2801 44.9725 39.7216 44.2073C38.163 43.4421 36.4687 42.9974 34.7377 42.8992C31.2568 42.7463 26.9069 44.3117 26.2555 48.2149C25.9636 49.9644 26.6127 51.8033 28.2042 52.6792C29.0469 53.1062 29.9964 53.2715 30.9325 53.1541C31.8685 53.0368 32.7489 52.642 33.4619 52.0199C33.8204 51.7245 34.1441 51.3886 34.4264 51.0187C34.6559 50.7163 35.173 51.0146 34.9402 51.3212Z" fill="#2F2E41"/>
<path d="M34.5127 136.273C30.1541 136.273 25.8934 134.971 22.2694 132.532C18.6453 130.093 15.8207 126.626 14.1528 122.569C12.4848 118.513 12.0484 114.049 12.8987 109.743C13.7489 105.437 15.8478 101.482 18.9297 98.377C22.0117 95.2724 25.9384 93.1582 30.2132 92.3016C34.488 91.445 38.919 91.8846 42.9458 93.5648C46.9726 95.2449 50.4144 98.0902 52.8359 101.741C55.2574 105.391 56.5499 109.683 56.5499 114.074C56.5434 119.959 54.2195 125.602 50.0881 129.764C45.9568 133.925 40.3553 136.266 34.5127 136.273ZM34.5127 92.7106C30.3182 92.7106 26.2178 93.9635 22.7302 96.3109C19.2426 98.6584 16.5243 101.995 14.9191 105.899C13.3139 109.802 12.8939 114.098 13.7122 118.242C14.5305 122.386 16.5504 126.192 19.5164 129.18C22.4823 132.168 26.2612 134.203 30.3752 135.027C34.4891 135.851 38.7533 135.428 42.6285 133.811C46.5038 132.194 49.816 129.456 52.1463 125.943C54.4767 122.43 55.7205 118.299 55.7204 114.074C55.7141 108.41 53.4776 102.98 49.5018 98.9749C45.5259 94.9698 40.1354 92.717 34.5127 92.7106Z" fill="#CACACA"/>
<path d="M34.5127 198.76C30.1541 198.76 25.8934 197.458 22.2694 195.019C18.6453 192.579 15.8207 189.112 14.1528 185.056C12.4848 181 12.0484 176.536 12.8987 172.23C13.749 167.924 15.8478 163.968 18.9298 160.864C22.0118 157.759 25.9385 155.645 30.2133 154.788C34.4882 153.932 38.9192 154.371 42.946 156.052C46.9728 157.732 50.4146 160.577 52.836 164.228C55.2575 167.878 56.55 172.17 56.55 176.561C56.5433 182.446 54.2194 188.089 50.0881 192.251C45.9567 196.412 40.3553 198.753 34.5127 198.76ZM34.5127 155.197C30.3182 155.197 26.2179 156.45 22.7302 158.798C19.2426 161.145 16.5243 164.482 14.9191 168.385C13.3139 172.289 12.8939 176.584 13.7122 180.728C14.5305 184.873 16.5503 188.679 19.5163 191.667C22.4823 194.655 26.2611 196.689 30.3751 197.514C34.489 198.338 38.7532 197.915 42.6284 196.298C46.5036 194.681 49.8159 191.943 52.1462 188.43C54.4766 184.917 55.7204 180.786 55.7205 176.561C55.7141 170.897 53.4777 165.467 49.5018 161.462C45.526 157.457 40.1354 155.204 34.5127 155.197Z" fill="#CACACA"/>
<path d="M33.0127 126.738C38.7927 126.738 43.4783 122.018 43.4783 116.195C43.4783 110.373 38.7927 105.653 33.0127 105.653C27.2326 105.653 22.547 110.373 22.547 116.195C22.547 122.018 27.2326 126.738 33.0127 126.738Z" fill="#E4E4E4"/>
<path d="M29.5297 120.621C28.8513 120.602 28.007 120.578 27.3566 120.1C27.1629 119.951 27.0037 119.762 26.8903 119.545C26.7769 119.328 26.7119 119.089 26.6999 118.844C26.6881 118.67 26.7164 118.496 26.7827 118.335C26.8489 118.174 26.9512 118.03 27.0816 117.916C27.2754 117.77 27.5024 117.675 27.7418 117.641C27.9811 117.606 28.2253 117.632 28.4521 117.717L27.8982 113.639L28.3048 113.583L28.956 118.377L28.6164 118.22C28.4233 118.107 28.2034 118.048 27.9799 118.05C27.7564 118.052 27.5376 118.115 27.3466 118.231C27.2641 118.306 27.1999 118.399 27.1588 118.503C27.1178 118.607 27.1011 118.719 27.11 118.83C27.12 119.012 27.1688 119.19 27.2531 119.352C27.3374 119.513 27.4553 119.654 27.5987 119.766C28.1048 120.138 28.7778 120.186 29.5411 120.208L29.5297 120.621Z" fill="#2F2E41"/>
<path d="M25.8874 113.991H23.677V114.404H25.8874V113.991Z" fill="#2F2E41"/>
<path d="M32.8643 113.991H30.6538V114.404H32.8643V113.991Z" fill="#2F2E41"/>
<path d="M33.5395 127.067L40.7783 124.237C41.962 123.774 43.1523 123.325 44.3297 122.846C44.8341 122.669 45.2987 122.393 45.6967 122.035C46.0433 121.665 46.2795 121.205 46.3782 120.706C46.5753 119.608 46.6383 118.491 46.566 117.378C46.5521 116.184 46.4546 114.993 46.2743 113.814C45.9582 111.597 45.2158 109.464 44.0887 107.534C42.0587 104.178 38.561 101.654 34.5377 101.855C32.6472 101.922 30.8379 102.646 29.4179 103.905C29.2735 104.079 29.1116 104.237 28.9346 104.377C28.8116 104.423 28.6778 104.432 28.5497 104.403C28.3809 104.392 28.2118 104.383 28.0427 104.377C27.4557 104.353 26.8678 104.377 26.285 104.452C25.2229 104.567 24.2163 104.988 23.3853 105.665C23.0218 105.956 22.7187 106.317 22.4936 106.726C22.2684 107.135 22.1255 107.585 22.0731 108.05C22.0451 108.482 22.116 108.914 22.2801 109.314C22.4443 109.713 22.6974 110.07 23.02 110.355C23.8836 111.088 25.1158 110.831 26.1517 110.775L29.9468 110.573L31.8697 110.47C32.2656 110.449 32.2644 111.069 31.8697 111.09L26.7589 111.363C25.9316 111.444 25.1004 111.477 24.2692 111.465C23.6377 111.436 23.0346 111.191 22.5592 110.772C22.125 110.37 21.8016 109.862 21.6205 109.296C21.4393 108.731 21.4067 108.128 21.5257 107.547C21.6833 106.921 21.9694 106.336 22.3655 105.83C22.7617 105.323 23.259 104.905 23.8254 104.604C25.3205 103.755 27.1062 103.673 28.7793 103.799L28.5616 103.89C30.4541 101.843 33.3529 100.98 36.0744 101.282C38.9478 101.601 41.5034 103.216 43.3396 105.424C45.3868 107.886 46.5024 110.955 46.9362 114.112C47.1619 115.816 47.2362 117.537 47.1582 119.255C47.1614 120.013 47.0328 120.765 46.7781 121.477C46.4875 122.171 45.9622 122.738 45.2955 123.079C44.5311 123.45 43.7452 123.776 42.9422 124.052L40.2752 125.095L35.0366 127.143L33.7031 127.665C33.3336 127.809 33.1735 127.21 33.5395 127.067Z" fill="#2F2E41"/>
<path d="M41.7407 102.789C41.7407 102.155 41.9273 101.536 42.2768 101.009C42.6263 100.482 43.123 100.071 43.7042 99.8286C44.2854 99.5861 44.925 99.5227 45.542 99.6463C46.159 99.7699 46.7257 100.075 47.1706 100.523C47.6154 100.971 47.9183 101.542 48.0411 102.164C48.1638 102.785 48.1008 103.429 47.8601 104.015C47.6193 104.6 47.2116 105.101 46.6886 105.453C46.1655 105.805 45.5506 105.993 44.9215 105.993C44.0782 105.992 43.2697 105.654 42.6734 105.053C42.0771 104.453 41.7417 103.638 41.7407 102.789ZM42.3563 102.789C42.3563 103.3 42.5068 103.799 42.7887 104.224C43.0705 104.649 43.4711 104.98 43.9398 105.176C44.4085 105.372 44.9243 105.423 45.4219 105.323C45.9195 105.223 46.3765 104.977 46.7353 104.616C47.094 104.255 47.3383 103.794 47.4373 103.293C47.5363 102.792 47.4855 102.272 47.2913 101.8C47.0972 101.328 46.7684 100.924 46.3466 100.64C45.9247 100.356 45.4288 100.205 44.9215 100.205C44.2414 100.206 43.5894 100.478 43.1085 100.963C42.6276 101.447 42.3571 102.104 42.3563 102.789Z" fill="#2F2E41"/>
<path d="M163.599 64.8327H91.1732C90.2685 64.8327 89.4008 64.4707 88.761 63.8262C88.1213 63.1818 87.7618 62.3077 87.7618 61.3963C87.7618 60.4849 88.1213 59.6109 88.761 58.9664C89.4008 58.322 90.2685 57.96 91.1732 57.96H163.599C164.047 57.96 164.491 58.0488 164.905 58.2215C165.318 58.3942 165.695 58.6474 166.011 58.9664C166.328 59.2855 166.579 59.6644 166.751 60.0813C166.922 60.4982 167.01 60.9451 167.01 61.3963C167.01 61.8476 166.922 62.2945 166.751 62.7114C166.579 63.1283 166.328 63.5071 166.011 63.8262C165.695 64.1453 165.318 64.3984 164.905 64.5711C164.491 64.7438 164.047 64.8327 163.599 64.8327Z" fill="#E4E4E4"/>
<path d="M140.244 53.0698H91.1732C90.2685 53.0698 89.4008 52.7077 88.761 52.0633C88.1213 51.4188 87.7618 50.5448 87.7618 49.6334C87.7618 48.722 88.1213 47.848 88.761 47.2035C89.4008 46.5591 90.2685 46.197 91.1732 46.197H140.244C140.692 46.197 141.136 46.2859 141.55 46.4586C141.964 46.6313 142.34 46.8844 142.657 47.2035C142.973 47.5226 143.225 47.9014 143.396 48.3184C143.568 48.7353 143.656 49.1821 143.656 49.6334C143.656 50.0847 143.568 50.5315 143.396 50.9485C143.225 51.3654 142.973 51.7442 142.657 52.0633C142.34 52.3824 141.964 52.6355 141.55 52.8082C141.136 52.9809 140.692 53.0698 140.244 53.0698Z" fill="#E4E4E4"/>
<path d="M163.599 123.392H91.1732C90.2685 123.392 89.4008 123.03 88.761 122.385C88.1213 121.741 87.7618 120.867 87.7618 119.955C87.7618 119.044 88.1213 118.17 88.761 117.526C89.4008 116.881 90.2685 116.519 91.1732 116.519H163.599C164.504 116.519 165.372 116.881 166.011 117.526C166.651 118.17 167.01 119.044 167.01 119.955C167.01 120.867 166.651 121.741 166.011 122.385C165.372 123.03 164.504 123.392 163.599 123.392Z" fill="#E4E4E4"/>
<path d="M140.244 111.629H91.1731C90.269 111.628 89.4023 111.265 88.7633 110.621C88.1244 109.977 87.7655 109.103 87.7655 108.192C87.7655 107.282 88.1244 106.408 88.7633 105.764C89.4023 105.12 90.269 104.757 91.1731 104.756H140.244C141.149 104.756 142.017 105.118 142.656 105.763C143.296 106.407 143.656 107.281 143.656 108.192C143.656 109.104 143.296 109.978 142.656 110.622C142.017 111.267 141.149 111.629 140.244 111.629Z" fill="#E4E4E4"/>
<path d="M163.599 185.879H91.1732C90.2685 185.879 89.4008 185.517 88.761 184.872C88.1213 184.228 87.7618 183.354 87.7618 182.443C87.7618 181.531 88.1213 180.657 88.761 180.013C89.4008 179.368 90.2685 179.006 91.1732 179.006H163.599C164.504 179.006 165.372 179.368 166.011 180.013C166.651 180.657 167.01 181.531 167.01 182.443C167.01 183.354 166.651 184.228 166.011 184.872C165.372 185.517 164.504 185.879 163.599 185.879Z" fill="#E4E4E4"/>
<path d="M140.244 174.116H91.1732C90.2685 174.116 89.4008 173.754 88.761 173.109C88.1213 172.465 87.7618 171.591 87.7618 170.679C87.7618 169.768 88.1213 168.894 88.761 168.249C89.4008 167.605 90.2685 167.243 91.1732 167.243H140.244C141.149 167.243 142.017 167.605 142.657 168.249C143.296 168.894 143.656 169.768 143.656 170.679C143.656 171.591 143.296 172.465 142.657 173.109C142.017 173.754 141.149 174.116 140.244 174.116Z" fill="#E4E4E4"/>
</g>
<defs>
<clipPath id="clip0_3118_1873">
<rect width="180" height="208" fill="white"/>
</clipPath>
</defs>
</svg>
