<?xml version="1.0" encoding="UTF-8"?>
<svg id="Layer_1" xmlns="http://www.w3.org/2000/svg" version="1.1" viewBox="0 0 48 48">
  <!-- Generator: Adobe Illustrator 29.1.0, SVG Export Plug-In . SVG Version: 2.1.0 Build 142)  -->
  <defs>
    <style>
      .st0 {
        fill: #fff;
      }

      .st1 {
        fill: #1e84f3;
      }
    </style>
  </defs>
  <rect class="st1" width="48" height="48" rx="8" ry="8"/>
  <path class="st0" d="M14.7,11.5c3.8,2.8,7.8,8.6,9.3,11.6,1.5-3.1,5.5-8.8,9.3-11.6,2.7-2,7.1-3.6,7.1,1.4s-.6,8.4-.9,9.6c-1.2,4.2-5.5,5.3-9.3,4.6,6.7,1.1,8.3,4.9,4.7,8.6-6.9,7.1-10-1.8-10.7-4.1h0c-.1-.3-.2-.5-.2-.5s-.1.2-.2.5h0c-.8,2.3-3.8,11.2-10.7,4.1-3.7-3.7-2-7.5,4.7-8.6-3.8.7-8.1-.4-9.3-4.6-.3-1.2-.9-8.6-.9-9.6,0-5,4.4-3.5,7.1-1.4h0Z"/>
</svg>