<?xml version="1.0" encoding="UTF-8"?>
<svg id="Layer_1" xmlns="http://www.w3.org/2000/svg" version="1.1" viewBox="0 0 48 48">
  <!-- Generator: Adobe Illustrator 29.1.0, SVG Export Plug-In . SVG Version: 2.1.0 Build 142)  -->
  <defs>
    <style>
      .st0 {
        fill: #f3f0e6;
      }

      .st1 {
        fill: #80552f;
      }
    </style>
  </defs>
  <rect class="st0" width="48" height="48" rx="8" ry="8"/>
  <path class="st1" d="M14.9,33h.2c.8,0,1.6,0,2.3,0,0,0,.2,0,.2.1.4,2.1,1.8,3.3,3.8,3.9,1.6.5,3.3.5,4.9.1,2.1-.5,3.4-1.7,4.1-3.7.5-1.3.7-2.7.7-4,0-.4,0-2.9,0-3.2h0c0,0-.1.2-.2.2-1.3,2.6-3.7,4.1-6.4,4.2-6.3.2-10.3-3.5-10.5-10.7,0-1.4.1-2.9.5-4.2,1.3-4.3,4.5-7.2,9.4-7.2,3.7,0,6.2,2.4,7.1,4.3,0,0,0,.1.1.1v-3.7h2.7c0,17.1,0,20.2,0,20.2,0,4.8-1.6,8.7-6.3,9.9-4.2,1-9.7.3-11.9-3.5-.5-.8-.7-1.7-.8-2.7h0ZM23.8,10.6c-3.2,0-6.6,2.5-7,8.1-.2,3.6.9,7.4,4.4,9,1.7.8,4.5.9,6.6-.5,2.9-2,3.8-5.9,3.3-9.4-.6-4.3-2.9-7.3-7.3-7.3h0Z"/>
</svg>