<?xml version="1.0" encoding="UTF-8"?>
<svg id="Layer_1" xmlns="http://www.w3.org/2000/svg" version="1.1" viewBox="0 0 576 512">
  <!-- Generator: Adobe Illustrator 29.1.0, SVG Export Plug-In . SVG Version: 2.1.0 Build 142)  -->
  <defs>
    <style>
      .st0 {
        fill: #737373;
      }
    </style>
  </defs>
  <path class="st0" d="M451.5,244.7h124.5v-72.7h-124.5v72.7ZM451.5,70.8v72.7h124.5v-72.7h-124.5ZM451.5,345.9h124.5v-72.7h-124.5v72.7ZM0,447.1h124.5v-72.7H0v72.7ZM150.5,447.1h124.5v-72.7h-124.5v72.7ZM301,447.1h124.5v-72.7h-124.5v72.7ZM451.5,447.1h124.5v-72.7h-124.5v72.7ZM301,345.9h124.5v-72.7h-124.5v72.7ZM150.5,345.9h124.5v-72.7h-124.5v72.7ZM150.5,244.7h124.5v-72.7h-124.5v72.7Z"/>
</svg>