<svg
  width="48"
  height="48"
  viewBox="0 0 24 24"
  fill="none"
  xmlns="http://www.w3.org/2000/svg"
  role="img"
>
  <path fill="#00E676" d="M18 0H6a6 6 0 0 0-6 6v12a6 6 0 0 0 6 6h12a6 6 0 0 0 6-6V6a6 6 0 0 0-6-6Z" />
  <path
    fill="#fff"
    d="M17.84 6.12a8.23 8.23 0 0 0-12.93 9.9L3.75 20.3l4.36-1.14a8.23 8.23 0 0 0 9.73-13.02Zm-5.8 12.64a6.8 6.8 0 0 1-3.49-.96l-.24-.15-2.59.68.7-2.52-.17-.26a6.84 6.84 0 1 1 5.78 3.2Zm3.74-5.12c-.2-.1-1.22-.6-1.4-.67-.2-.06-.33-.1-.47.1-.13.21-.53.68-.65.81-.11.14-.24.15-.44.05-.2-.1-.87-.32-1.65-1.02a6.25 6.25 0 0 1-1.14-1.42c-.12-.2-.01-.31.09-.42.09-.09.2-.24.3-.36.1-.11.14-.2.21-.34.07-.14.03-.25-.02-.36L9.98 8.5c-.17-.4-.33-.35-.46-.35h-.4a.76.76 0 0 0-.54.25c-.2.2-.72.7-.72 1.71s.74 1.98.84 2.12c.1.14 1.45 2.21 3.5 3.1.5.21.88.34 1.17.43.5.16.94.14 1.3.09.39-.06 1.2-.5 1.38-.98.17-.48.17-.89.12-.98-.05-.08-.19-.13-.4-.24Z"
  />
</svg>
