<?xml version="1.0" encoding="UTF-8"?>
<svg id="Layer_1" xmlns="http://www.w3.org/2000/svg" version="1.1" viewBox="0 0 48 48">
  <!-- Generator: Adobe Illustrator 29.1.0, SVG Export Plug-In . SVG Version: 2.1.0 Build 142)  -->
  <defs>
    <style>
      .st0 {
        fill: #184efb;
      }

      .st1 {
        fill: #fff;
      }
    </style>
  </defs>
  <rect class="st0" width="48" height="48" rx="8" ry="8"/>
  <path class="st1" d="M21.1,22.1c1.6-.8,2.5-1.9,2.5-3.8,0-3.6-2.7-4.5-5.8-4.5h-8.5v18.1h8.8c3.3,0,6.4-1.6,6.4-5.2s-1.1-3.9-3.3-4.6h0ZM13.3,16.9h3.7c1.4,0,2.7.4,2.7,2.1s-1,2.2-2.4,2.2h-4s0-4.2,0-4.2ZM17.5,28.8h-4.2v-5h4.3c1.7,0,2.9.7,2.9,2.6s-1.3,2.4-2.9,2.4h0ZM35.8,16.6h-7.3v-1.8h7.3v1.8h0ZM38.7,25.5c0-3.9-2.3-7.1-6.4-7.1s-6.7,3-6.7,6.9,2.6,6.9,6.7,6.9,5.1-1.4,6.1-4.4h-3.2c-.3,1.1-1.7,1.7-2.8,1.7-2.1,0-3.2-1.2-3.2-3.3h9.4c0-.2,0-.4,0-.7ZM29.2,24c.1-1.7,1.3-2.8,3-2.8s2.7,1.1,2.9,2.8h-5.8Z"/>
</svg>