<?xml version="1.0" encoding="UTF-8"?>
<svg id="Layer_1" xmlns="http://www.w3.org/2000/svg" version="1.1" viewBox="0 0 512 512">
  <!-- Generator: Adobe Illustrator 29.1.0, SVG Export Plug-In . SVG Version: 2.1.0 Build 142)  -->
  <defs>
    <style>
      .st0 {
        fill: #737373;
      }
    </style>
  </defs>
  <path class="st0" d="M64,112c-8.8,0-16,7.2-16,16v22.1l172.5,141.6c20.7,17,50.4,17,71.1,0l172.4-141.6v-22.1c0-8.8-7.2-16-16-16H64ZM48,212.2v171.8c0,8.8,7.2,16,16,16h384c8.8,0,16-7.2,16-16v-171.8l-142,116.6c-38.4,31.5-93.7,31.5-132,0L48,212.2ZM0,128c0-35.3,28.7-64,64-64h384c35.3,0,64,28.7,64,64v256c0,35.3-28.7,64-64,64H64c-35.3,0-64-28.7-64-64V128Z"/>
</svg>