<?xml version="1.0" encoding="UTF-8"?>
<svg id="Layer_1" xmlns="http://www.w3.org/2000/svg" version="1.1" viewBox="0 0 48 48">
  <!-- Generator: Adobe Illustrator 29.1.0, SVG Export Plug-In . SVG Version: 2.1.0 Build 142)  -->
  <defs>
    <style>
      .st0 {
        fill: #fff;
      }
    </style>
  </defs>
  <rect width="48" height="48" rx="8" ry="8"/>
  <path class="st0" d="M38.2,17.3l-13.7-9.1c-.5-.3-1-.3-1.4,0l-13.7,9.1c-.4.2-.6.6-.6,1.1v9.1c0,.4.2.8.6,1.1l13.7,9.1c.5.3,1,.3,1.4,0l13.7-9.1c.4-.2.6-.6.6-1.1v-9.1c0-.4-.2-.8-.6-1.1ZM25.1,11.7l10.1,6.7-4.5,3-5.6-3.7v-6ZM22.5,11.7v6l-5.6,3.7-4.5-3,10.1-6.7ZM11.5,20.8l3.2,2.2-3.2,2.1v-4.3h0ZM22.5,34.2l-10.1-6.7,4.5-3,5.6,3.7v6h0ZM23.8,26l-4.5-3,4.5-3,4.5,3-4.5,3ZM25.1,34.2v-6l5.6-3.7,4.5,3-10.1,6.7ZM36.2,25.1l-3.2-2.2,3.2-2.1v4.3Z"/>
</svg>