<?xml version="1.0" encoding="UTF-8"?>
<svg id="Layer_1" xmlns="http://www.w3.org/2000/svg" version="1.1" viewBox="0 0 448 512">
  <!-- Generator: Adobe Illustrator 29.1.0, SVG Export Plug-In . SVG Version: 2.1.0 Build 142)  -->
  <defs>
    <style>
      .st0 {
        fill: #737373;
      }
    </style>
  </defs>
  <path class="st0" d="M384,32H64C28.7,32,0,60.7,0,96v320c0,35.3,28.7,64,64,64h320c35.3,0,64-28.7,64-64V96c0-35.3-28.7-64-64-64ZM380.1,351.3h-.1c-2.5,2.8-5.4,5.1-8.7,6.9-6.5,3.6-13.4,6.3-20.6,8.2-1.4.4-2.7,1-3.9,1.8-2.2,1.9-2.1,4.6-4.4,8.6-1.7,3-4,5.5-6.8,7.5-6.7,4.6-14.2,4.9-22.2,5.2-7.2.3-15.4.6-24.7,3.7-3.8,1.2-7.8,3.7-12.4,6.5-11.3,6.9-26.7,16.4-52.3,16.4s-40.9-9.4-52.1-16.3c-4.7-2.9-8.7-5.4-12.5-6.6-9.3-3.1-17.5-3.4-24.7-3.7-8-.3-15.5-.6-22.2-5.2-2.4-1.6-4.4-3.7-6-6.1-3.2-4.6-2.9-7.8-5.3-9.9-1.3-.8-2.6-1.4-4.1-1.8-7.1-1.9-13.9-4.6-20.3-8.1-3.1-1.6-5.9-3.8-8.3-6.3-6.6-6.8-8.3-14.8-5.7-21.8,3.4-9.3,11.6-12.1,19.4-16.3,14.8-8,26.3-18.1,34.4-29.9,2.3-3.3,4.3-6.9,6-10.6.8-2.2.8-3.3.2-4.4-.6-.9-1.3-1.6-2.2-2.2-2.5-1.7-5.1-3.4-6.9-4.5-3.3-2.1-5.9-3.8-7.5-5-6.3-4.4-10.7-9-13.4-14.2-3.9-7.3-4.4-15.9-1.4-23.6,4.1-10.9,14.5-17.7,27-17.7,2.6,0,5.2.3,7.8.8.7.2,1.4.3,2,.5-.1-7.4.1-15.4.7-23.1,2.4-27.3,11.9-41.6,21.9-53,6.4-7.2,13.9-13.2,22.3-17.9,15.2-8.8,32.2-13.2,50.9-13.2s35.8,4.4,50.9,13c8.3,4.7,15.8,10.8,22.2,17.9,10,11.4,19.5,25.7,21.9,53,.6,7.7.9,15.4.7,23.1.7-.2,1.4-.3,2.1-.5,2.6-.5,5.2-.8,7.8-.8,12.5,0,22.8,6.8,27,17.7,3,7.7,2.5,16.3-1.4,23.6-2.7,5.2-7.1,9.9-13.4,14.2-1.7,1.2-4.3,2.9-7.5,5-1.8,1.2-4.5,2.9-7.2,4.7-.8.5-1.5,1.2-2,2-.5,1-.5,2.2.2,4.2,1.7,3.8,3.7,7.4,6.1,10.8,8.3,12.1,20.2,22.3,35.5,30.4,1.5.8,3,1.5,4.4,2.3.7.3,1.6.8,2.5,1.3,4.9,2.7,9.2,6,11.5,12.2,2.5,6.8,1,14.6-5.2,21.2ZM363.4,332.8c-50.3-24.3-58.3-61.9-58.7-64.7-.4-3.4-.9-6,2.8-9.5,3.6-3.3,19.5-13.2,24-16.3,7.3-5.1,10.5-10.2,8.2-16.5-1.7-4.3-5.7-6-10-6-1.3,0-2.7.1-4,.4-8,1.7-15.8,5.8-20.4,6.9-.6.1-1.1.2-1.7.2-2.4,0-3.3-1.1-3.1-4,.6-8.8,1.8-25.9.4-41.9-1.9-22-9-32.9-17.4-42.6-4.1-4.6-23.1-24.7-59.5-24.7s-55.5,20.3-59.5,24.9c-8.4,9.7-15.5,20.6-17.4,42.6-1.4,16-.1,33.1.4,41.9.2,2.8-.7,4-3.1,4-.6,0-1.1,0-1.7-.2-4.5-1.1-12.3-5.1-20.3-6.9-1.3-.3-2.7-.4-4-.4-4.3,0-8.3,1.6-10,6-2.4,6.3.8,11.4,8.2,16.5,4.4,3.1,20.4,13,24,16.3,3.7,3.4,3.2,6.1,2.8,9.5-.4,2.8-8.4,40.4-58.7,64.7-2.9,1.4-8,4.5.9,9.3,13.9,7.6,23.1,6.8,30.3,11.4,6.1,3.9,2.5,12.4,6.9,15.4,5.5,3.8,21.6-.3,42.3,6.6,17.4,5.7,28.1,22,59,22s41.8-16.3,58.9-22c20.8-6.9,36.9-2.8,42.3-6.6,4.4-3.1.8-11.5,6.9-15.4,7.2-4.6,16.4-3.8,30.3-11.5,8.9-4.8,3.8-7.9.9-9.4Z"/>
</svg>