<svg
  width="48"
  height="48"
  viewBox="0 0 24 24"
  fill="none"
  xmlns="http://www.w3.org/2000/svg"
  role="img"
>
  <path fill="#5865F2" d="M18 0H6a6 6 0 0 0-6 6v12a6 6 0 0 0 6 6h12a6 6 0 0 0 6-6V6a6 6 0 0 0-6-6Z" />
  <path
    fill="#fff"
    d="M17.7 7a14 14 0 0 0-3.4-1l-.4.8H10L9.7 6c-1.2.2-2.4.5-3.4 1-2.2 3-2.8 6-2.5 9 1.5 1 2.8 1.6 4.2 2l.9-1.4a9 9 0 0 1-1.4-.6l.3-.3c2.7 1.2 5.7 1.2 8.4 0l.3.3a9 9 0 0 1-1.4.6L16 18a14 14 0 0 0 4.2-2c.3-3.4-.6-6.4-2.5-9Zm-8.4 7.2c-.9 0-1.5-.7-1.5-1.6 0-.9.6-1.6 1.5-1.6.8 0 1.5.7 1.4 1.6 0 .9-.6 1.6-1.4 1.6Zm5.4 0c-.8 0-1.4-.7-1.4-1.6 0-.9.6-1.6 1.4-1.6.9 0 1.5.7 1.5 1.6 0 .9-.6 1.6-1.5 1.6Z"
  />
</svg>
