<?xml version="1.0" encoding="UTF-8"?>
<svg id="Layer_1" xmlns="http://www.w3.org/2000/svg" version="1.1" viewBox="0 0 447.5 447.5">
  <!-- Generator: Adobe Illustrator 29.1.0, SVG Export Plug-In . SVG Version: 2.1.0 Build 142)  -->
  <defs>
    <style>
      .st0 {
        fill: #f7f7f7;
      }

      .st1 {
        fill: #f0941b;
      }

      .st2 {
        fill: #221e1f;
      }
    </style>
  </defs>
  <rect class="st2" x="1.7" y="2.1" width="443.7" height="443.7" rx="76.8" ry="76.8"/>
  <path class="st0" d="M247.2,157.4c-34.7,1.3-120.9,11.1-120.9,83.8s98.6,81.3,130.9,30.8c4.6,7.3,25.2,26.7,32.3,33.4l40.5-39.9s-23-18-23-37.7v-104.9c0-18-17.5-58.7-80.1-58.7s-96.1,39.2-96.1,74.4l52.4,4.8c11.6-35.3,38.7-35.3,38.7-35.3,29,0,25.3,21.3,25.3,49.3h0ZM247.2,219.3c0,57.1-60,48.5-60,12.3s36-40.4,60-41.2v29Z"/>
  <path class="st1" d="M344.2,337.4c-5.5,7.1-49.9,47.8-124.4,47.8s-131.6-51-149.1-72c-4.8-5.5.7-8.1,3.9-5.9,52.3,31.7,133.9,84,265.7,21.6,5.3-2.6,9.5,1.4,3.9,8.6Z"/>
  <path class="st1" d="M372.6,338.9c-4.6,11.3-11.4,19.1-15.1,22.1-3.9,3.2-6.8,1.9-4.6-2.7s13.8-33.2,9.1-39.2c-4.6-5.9-26.4-3.1-34.2-2.3-7.7.7-9.3,1.4-10-.2-1.6-4.1,15.5-11.1,26.7-12.5,11.2-1.3,29.2-.6,32.8,4.1,2.6,3.6,0,19.3-4.6,30.7h0Z"/>
</svg>