<?xml version="1.0" encoding="UTF-8"?>
<svg id="Layer_1" xmlns="http://www.w3.org/2000/svg" version="1.1" viewBox="0 0 454.5 447.5">
  <!-- Generator: Adobe Illustrator 29.1.0, SVG Export Plug-In . SVG Version: 2.1.0 Build 142)  -->
  <defs>
    <style>
      .st0 {
        fill: #b71c1c;
      }

      .st1 {
        fill: #fff;
      }
    </style>
  </defs>
  <path class="st0" d="M340.7,0H114.1C51.5,0,.8,50.7.8,113.3v226.6c0,62.6,50.7,113.3,113.3,113.3h226.6c62.6,0,113.3-50.7,113.3-113.3V113.3c0-62.6-50.7-113.3-113.3-113.3Z"/>
  <circle class="st1" cx="227.4" cy="223.8" r="24.9"/>
  <path class="st1" d="M222.1,226.9c-21.3-25.4-25.8-66.2-8.7-98.2,8.1-16.2,21.3-29.8,36.8-39.5,15.8-9,34.1-14.9,52.6-14.4,37-.4,72.8,22,88.8,54.2,16.8,31.9,12.9,72.2-8.1,97.9l-10.8-6.2c9.9-26.9,6.1-55.5-8.1-76.1-14.3-20.5-37.8-33.3-61.9-32.7-23.9,0-47.5,12.5-61.2,33.1-14.2,20.5-18,48.5-8.8,75.8l-10.8,6.2Z"/>
  <path class="st1" d="M227.4,230c-32.6,5.8-70.3-10.7-89.4-41.6-10-15.1-15.2-33.4-15.8-51.6.1-18.2,4.1-37,13.9-52.7,18.2-32.2,55.4-52,91.3-49.8,36,1.4,69,24.9,80.7,56l-10.8,6.2c-18.4-22-45-33-70-31-24.9,2.1-47.7,16.1-59.3,37.2-11.9,20.7-12.9,47.3-2,69.5,10.7,22.5,33,39.8,61.2,45.5v12.4Z"/>
  <path class="st1" d="M232.8,226.9c-11.3,31.2-44.4,55.5-80.7,56.6-18,1.1-36.5-3.6-52.6-12.1-15.7-9.2-30-22.1-38.7-38.4-18.8-31.9-17.4-74,2.5-104,19.2-30.5,56.1-47.3,88.8-41.9v12.4c-28.3,4.9-51.1,22.4-61.9,45.1-10.7,22.6-9.9,49.3,2.6,70,12,20.6,34.5,34.9,59.2,36.5,24.8,2,51-8.7,70-30.3l10.8,6.2Z"/>
  <path class="st1" d="M232.8,220.6c21.3,25.4,25.8,66.2,8.7,98.2-8.1,16.2-21.3,29.8-36.8,39.5-15.8,9-34.1,14.9-52.6,14.4-37,.4-72.8-22-88.8-54.2-16.8-31.9-12.9-72.2,8.1-97.9l10.8,6.2c-9.9,26.9-6.1,55.5,8.1,76.1,14.3,20.5,37.8,33.3,61.9,32.7,23.9,0,47.5-12.5,61.2-33.1,14.2-20.5,18-48.5,8.8-75.8l10.8-6.2Z"/>
  <path class="st1" d="M227.4,217.5c32.6-5.8,70.3,10.7,89.4,41.6,10,15.1,15.2,33.4,15.8,51.6-.1,18.2-4.1,37-13.9,52.7-18.2,32.2-55.4,52-91.3,49.8-36-1.4-69-24.9-80.7-56l10.8-6.2c18.4,22,45,33,70,31,24.9-2.1,47.7-16.1,59.3-37.2,11.9-20.7,12.9-47.3,2-69.5-10.7-22.5-33-39.8-61.2-45.5v-12.4Z"/>
  <path class="st1" d="M222.1,220.6c11.3-31.2,44.4-55.5,80.7-56.6,18-1.1,36.5,3.6,52.6,12.1,15.7,9.2,30,22.1,38.7,38.4,18.8,31.9,17.4,74-2.5,104-19.2,30.5-56.1,47.3-88.8,41.9v-12.4c28.3-4.9,51.1-22.4,61.9-45.1,10.7-22.6,9.9-49.3-2.6-70-12-20.6-34.5-34.9-59.2-36.5-24.8-2-51,8.7-70,30.3l-10.8-6.2Z"/>
</svg>