<svg width="48" height="48" viewBox="0 0 48 48" fill="none" xmlns="http://www.w3.org/2000/svg">
<rect width="48" height="48" rx="8" fill="#FFFC00"/>
<path d="M37.0684 31.2099C32.3515 28.9266 31.5997 25.4012 31.5663 25.1397C31.5258 24.823 31.4799 24.574 31.8293 24.2518C32.1663 23.9405 33.6613 23.0152 34.0761 22.7257C34.7617 22.2463 35.0636 21.7677 34.8411 21.1793C34.6854 20.7723 34.3064 20.619 33.9072 20.619C33.7812 20.6194 33.6557 20.6335 33.5329 20.661C32.7795 20.8244 32.048 21.2019 31.6246 21.3038C31.5738 21.317 31.5215 21.324 31.469 21.3248C31.2433 21.3248 31.1577 21.2245 31.1795 20.9529C31.2324 20.1295 31.3445 18.5224 31.2145 17.0212C31.0363 14.9558 30.3701 13.9324 29.5802 13.0273C29.1981 12.5884 27.4237 10.7028 23.9995 10.7028C20.5753 10.7028 18.8033 12.5884 18.4235 13.0219C17.6313 13.927 16.9659 14.9504 16.7892 17.0158C16.6592 18.517 16.776 20.1233 16.8242 20.9474C16.8398 21.2058 16.7604 21.3194 16.5347 21.3194C16.4822 21.3185 16.43 21.3114 16.3791 21.2984C15.9565 21.1964 15.225 20.819 14.4716 20.6556C14.3488 20.628 14.2232 20.6139 14.0973 20.6135C13.6965 20.6135 13.3191 20.7692 13.1634 21.1739C12.9409 21.7622 13.2413 22.2408 13.9292 22.7202C14.344 23.0097 15.839 23.9343 16.176 24.2463C16.5246 24.5685 16.4795 24.8175 16.439 25.1343C16.4055 25.3997 15.653 28.9251 10.9369 31.2045C10.6606 31.3383 10.1906 31.6216 11.0194 32.0792C12.3206 32.7983 13.1868 32.7213 13.86 33.1547C14.4312 33.5228 14.0934 34.3166 14.509 34.603C15.0195 34.9556 16.5285 34.5781 18.478 35.2217C20.1123 35.7603 21.1053 37.2817 24.0034 37.2817C26.9015 37.2817 27.9234 35.7532 29.5289 35.2217C31.4744 34.5781 32.9865 34.9556 33.4978 34.603C33.9126 34.3166 33.5757 33.5228 34.1469 33.1547C34.82 32.7213 35.6854 32.7983 36.9874 32.0792C37.8147 31.6271 37.3446 31.3438 37.0684 31.2099Z" fill="white"/>
<path d="M39.1206 30.9414C38.9089 30.3655 38.5058 30.0574 38.0467 29.8021C37.9603 29.7515 37.8809 29.711 37.8132 29.6799C37.6762 29.6091 37.5361 29.5406 37.3968 29.4682C35.9657 28.7095 34.8481 27.7522 34.073 26.6176C33.8529 26.2981 33.662 25.9595 33.5026 25.6059C33.4364 25.4168 33.4395 25.3094 33.487 25.2113C33.5341 25.1358 33.5964 25.0708 33.6699 25.0206C33.9158 24.858 34.1695 24.693 34.3415 24.5817C34.6481 24.3833 34.8909 24.2261 35.0474 24.1148C35.6349 23.7039 36.0458 23.2673 36.3027 22.7793C36.4818 22.4422 36.5863 22.0705 36.609 21.6894C36.6317 21.3083 36.5721 20.9267 36.4342 20.5707C36.0451 19.5466 35.0777 18.9108 33.9057 18.9108C33.6585 18.9105 33.412 18.9366 33.1703 18.9886C33.1057 19.0026 33.0411 19.0174 32.9781 19.0337C32.989 18.3333 32.9734 17.594 32.9111 16.8664C32.6901 14.3083 31.7944 12.9674 30.8605 11.8981C30.2625 11.2281 29.5581 10.6612 28.7756 10.2203C27.3585 9.41091 25.7514 9 23.9996 9C22.2478 9 20.6486 9.41091 19.2298 10.2203C18.4455 10.6613 17.7397 11.2293 17.1411 11.9012C16.2072 12.9705 15.3115 14.3138 15.0904 16.8695C15.0282 17.5971 15.0126 18.3403 15.0227 19.0368C14.9597 19.0205 14.8959 19.0057 14.8313 18.9917C14.5896 18.9397 14.3431 18.9136 14.0959 18.9139C12.9231 18.9139 11.9542 19.5497 11.5666 20.5738C11.4281 20.93 11.3679 21.3118 11.39 21.6933C11.4122 22.0748 11.5162 22.4471 11.695 22.7848C11.9526 23.2727 12.3635 23.7093 12.9511 24.1202C13.1067 24.2292 13.3503 24.3864 13.6569 24.5872C13.8227 24.6946 14.0647 24.8518 14.3021 25.009C14.3851 25.0627 14.4557 25.1335 14.5091 25.2168C14.5589 25.3187 14.5605 25.4284 14.4865 25.6308C14.3293 25.977 14.1415 26.3086 13.9254 26.6215C13.1674 27.7304 12.0826 28.6705 10.6973 29.4231C9.96346 29.8122 9.2008 30.0721 8.87861 30.9477C8.6358 31.6084 8.79456 32.3601 9.4117 32.9936C9.63819 33.2301 9.90089 33.4289 10.1899 33.5827C10.7913 33.9132 11.4308 34.1691 12.0943 34.3446C12.2312 34.3799 12.3611 34.4381 12.4787 34.5166C12.7036 34.7135 12.6717 35.01 12.9713 35.4443C13.1217 35.6687 13.3128 35.863 13.5348 36.017C14.1636 36.4513 14.8702 36.4785 15.6189 36.5073C16.2951 36.533 17.0617 36.5626 17.9372 36.8513C18.2999 36.9712 18.6765 37.2031 19.1131 37.4739C20.1614 38.1183 21.5964 39 23.9981 39C26.3997 39 27.8449 38.1136 28.9009 37.4669C29.3344 37.2007 29.7087 36.9712 30.0613 36.8544C30.9368 36.5649 31.7033 36.5361 32.3796 36.5104C33.1283 36.4816 33.8349 36.4544 34.4637 36.0202C34.7265 35.8369 34.9455 35.5977 35.105 35.3197C35.3205 34.9532 35.3151 34.6972 35.5174 34.5182C35.6277 34.4434 35.7498 34.3876 35.8785 34.3532C36.551 34.1771 37.1992 33.9189 37.8085 33.5843C38.1156 33.4196 38.392 33.2032 38.6257 32.9446L38.6335 32.9353C39.2125 32.3158 39.358 31.5858 39.1206 30.9414ZM36.9859 32.0885C35.684 32.8076 34.8186 32.7306 34.1454 33.1641C33.5734 33.5322 33.9119 34.3259 33.4964 34.6123C32.9858 34.9649 31.4769 34.5874 29.5274 35.231C27.9196 35.7626 26.8939 37.291 24.002 37.291C21.11 37.291 20.1085 35.7657 18.4742 35.2271C16.5286 34.5835 15.0165 34.961 14.5052 34.6084C14.0904 34.3221 14.4274 33.5283 13.8562 33.1602C13.1822 32.7267 12.3168 32.8037 11.0156 32.0885C10.1868 31.6309 10.6569 31.3477 10.9331 31.2138C15.6492 28.9305 16.4018 25.4051 16.4352 25.1436C16.4757 24.8269 16.5208 24.5778 16.1722 24.2556C15.8352 23.9444 14.3402 23.019 13.9254 22.7295C13.239 22.2502 12.9371 21.7715 13.1597 21.1832C13.3153 20.7762 13.6951 20.6229 14.0935 20.6229C14.2195 20.6233 14.345 20.6373 14.4679 20.6649C15.2212 20.8283 15.9527 21.2058 16.3753 21.3077C16.4262 21.3208 16.4784 21.3278 16.5309 21.3287C16.7566 21.3287 16.836 21.2151 16.8204 20.9567C16.7722 20.1326 16.6555 18.5263 16.7854 17.0251C16.9636 14.9597 17.629 13.9363 18.4197 13.0312C18.7995 12.5962 20.584 10.7106 23.9965 10.7106C27.409 10.7106 29.1982 12.5884 29.578 13.0219C30.3694 13.927 31.0356 14.9503 31.2123 17.0158C31.3422 18.517 31.2302 20.124 31.1772 20.9474C31.1593 21.219 31.241 21.3194 31.4667 21.3194C31.5193 21.3185 31.5715 21.3115 31.6224 21.2984C32.0457 21.1964 32.7773 20.819 33.5306 20.6556C33.6535 20.628 33.779 20.6139 33.9049 20.6135C34.3057 20.6135 34.6832 20.7692 34.8388 21.1739C35.0614 21.7622 34.761 22.2408 34.0738 22.7202C33.659 23.0097 32.164 23.9342 31.8271 24.2463C31.4776 24.5685 31.5235 24.8175 31.564 25.1343C31.5975 25.3996 32.3492 28.925 37.0661 31.2045C37.3447 31.3438 37.8148 31.627 36.9859 32.0885Z" fill="black"/>
</svg>
