<?xml version="1.0" encoding="UTF-8"?>
<svg id="Layer_1" xmlns="http://www.w3.org/2000/svg" xmlns:xlink="http://www.w3.org/1999/xlink" version="1.1" viewBox="0 0 447.5 447.5">
  <!-- Generator: Adobe Illustrator 29.1.0, SVG Export Plug-In . SVG Version: 2.1.0 Build 142)  -->
  <defs>
    <style>
      .st0 {
        fill: none;
      }

      .st1 {
        fill: #f28438;
      }

      .st2 {
        fill: #fff;
      }

      .st3 {
        clip-path: url(#clippath);
      }
    </style>
    <clipPath id="clippath">
      <rect class="st0" x="57.8" y="64.6" width="290.9" height="290.9"/>
    </clipPath>
  </defs>
  <rect class="st1" x="1.7" y="2.1" width="443.7" height="443.7" rx="76.8" ry="76.8"/>
  <g class="st3">
    <path class="st2" d="M287.8,329.6v-77.6h25.9v103.5H80.1v-103.5h25.8v77.6h182,0ZM131.8,303.8h130.2v-25.9h-130.2s0,25.9,0,25.9ZM135,244.9l127.1,26.5,5.4-25.1-127-26.5-5.5,25.1h0ZM151.4,183.7l117.6,54.9,10.9-23.6-117.6-54.9-10.9,23.5v.2s0,0,0,0ZM184.4,125.7l99.6,83.1,16.5-19.7-99.6-83-16.4,19.5h0c0,0,0,0,0,0ZM248.6,64.6l-21.1,15.7,77.6,104.3,21.2-15.7-77.6-104.3h0Z"/>
  </g>
</svg>