<?xml version="1.0" encoding="UTF-8"?>
<svg id="Layer_1" xmlns="http://www.w3.org/2000/svg" version="1.1" viewBox="0 0 48 48">
  <!-- Generator: Adobe Illustrator 29.1.0, SVG Export Plug-In . SVG Version: 2.1.0 Build 142)  -->
  <defs>
    <style>
      .st0 {
        fill: #fff;
      }

      .st1 {
        fill: #30a4e1;
      }

      .st2 {
        fill: #80552f;
      }
    </style>
  </defs>
  <rect class="st1" width="48" height="48" rx="8" ry="8"/>
  <path class="st2" d="M14.9,33h.2c.8,0,1.6,0,2.3,0,0,0,.2,0,.2.1.4,2.1,1.8,3.3,3.8,3.9,1.6.5,3.3.5,4.9.1,2.1-.5,3.4-1.7,4.1-3.7.5-1.3.7-2.7.7-4,0-.4,0-2.9,0-3.2h0c0,0-.1.2-.2.2-1.3,2.6-3.7,4.1-6.4,4.2-6.3.2-10.3-3.5-10.5-10.7,0-1.4.1-2.9.5-4.2,1.3-4.3,4.5-7.2,9.4-7.2,3.7,0,6.2,2.4,7.1,4.3,0,0,0,.1.1.1v-3.7h2.7c0,17.1,0,20.2,0,20.2,0,4.8-1.6,8.7-6.3,9.9-4.2,1-9.7.3-11.9-3.5-.5-.8-.7-1.7-.8-2.7h0ZM23.8,10.6c-3.2,0-6.6,2.5-7,8.1-.2,3.6.9,7.4,4.4,9,1.7.8,4.5.9,6.6-.5,2.9-2,3.8-5.9,3.3-9.4-.6-4.3-2.9-7.3-7.3-7.3h0Z"/>
  <rect class="st0" x="6.8" y="10.7" width="30.2" height="25.2"/>
  <path class="st1" d="M21.9,4.2C10.6,4.2,1.5,12.8,1.5,23.3s9.1,19,20.4,19,20.4-8.5,20.4-19S33.2,4.2,21.9,4.2ZM34.9,16.2c-.4,3.8-1.9,13-2.7,17.2-.3,1.8-1,2.4-1.6,2.5-1.4.1-2.4-.9-3.8-1.8-2.1-1.4-3.3-2.2-5.3-3.6-2.4-1.6-.8-2.4.5-3.8.4-.4,6.5-5.9,6.6-6.5,0,0,0-.3-.1-.4s-.3,0-.5,0c-.2,0-3.6,2.3-10.1,6.7-1,.7-1.8,1-2.6,1-.9,0-2.5-.5-3.7-.9-1.5-.5-2.7-.7-2.6-1.6,0-.4.6-.9,1.8-1.3,7-3,11.7-5.1,14-6,6.7-2.8,8-3.2,8.9-3.3.2,0,.6,0,.9.3.2.2.3.4.3.6,0,.3,0,.6,0,1Z"/>
</svg>