<?xml version="1.0" encoding="UTF-8"?>
<svg id="Layer_1" xmlns="http://www.w3.org/2000/svg" version="1.1" viewBox="0 0 512 512">
  <!-- Generator: Adobe Illustrator 29.1.0, SVG Export Plug-In . SVG Version: 2.1.0 Build 142)  -->
  <defs>
    <style>
      .st0 {
        fill: #737373;
      }
    </style>
  </defs>
  <path class="st0" d="M111.8,62.2c58.4,43.7,121.2,132.5,144.2,180.2,23-47.6,85.8-136.4,144.2-180.2,42.1-31.6,110.3-56,110.3,21.8s-8.9,130.5-14.1,149.2c-18.2,64.8-84.4,81.4-143.3,71.3,102.9,17.5,129.1,75.5,72.5,133.5-107.4,110.2-154.3-27.6-166.3-62.9h0c-1.7-4.9-2.6-7.8-3.3-7.8s-1.6,3-3.3,7.8h0c-12,35.3-59,173.1-166.3,62.9-56.5-58-30.4-116,72.5-133.5-58.9,10.1-125.1-6.5-143.2-71.4C10.4,214.4,1.5,99.4,1.5,83.9,1.5,6.1,69.7,30.5,111.8,62.1h0Z"/>
</svg>