<?xml version="1.0" encoding="UTF-8"?>
<svg id="Layer_1" xmlns="http://www.w3.org/2000/svg" version="1.1" viewBox="0 0 48 48">
  <!-- Generator: Adobe Illustrator 29.1.0, SVG Export Plug-In . SVG Version: 2.1.0 Build 142)  -->
  <defs>
    <style>
      .st0 {
        fill: #fff;
      }

      .st1 {
        fill: #633cff;
      }
    </style>
  </defs>
  <rect class="st1" width="48" height="48" rx="8" ry="8"/>
  <path class="st0" d="M12.7,24.2c-2.6,2.6-2.6,6.7,0,9.3s5.9,2.6,8.5.7h0c.7-.5.8-1.4.3-2.1s-1.4-.8-2-.3h0c-1.5,1.1-3.5.9-4.7-.3-1.4-1.4-1.4-3.8,0-5.2l5.1-5.1c1.4-1.4,3.8-1.4,5.2,0s1.4,3.3.4,4.7h0c-.5.7-.3,1.6.3,2.1s1.6.3,2-.3h0c1.9-2.7,1.6-6.3-.7-8.5s-6.7-2.6-9.3,0l-5.1,5.1ZM36.4,25.3c2.6-2.6,2.6-6.7,0-9.3-2.3-2.3-5.9-2.6-8.5-.7h0c-.7.5-.8,1.4-.3,2.1s1.4.8,2,.3h0c1.5-1.1,3.5-.9,4.7.3,1.4,1.4,1.4,3.8,0,5.2l-5.1,5.1c-1.4,1.4-3.8,1.4-5.2,0s-1.4-3.3-.4-4.7h0c.5-.7.3-1.6-.3-2.1s-1.6-.3-2,.3h0c-1.9,2.7-1.6,6.3.7,8.5s6.7,2.6,9.3,0l5.1-5.1Z"/>
</svg>