<?xml version="1.0" encoding="UTF-8"?>
<svg id="Layer_1" xmlns="http://www.w3.org/2000/svg" version="1.1" viewBox="0 0 447.5 447.5">
  <!-- Generator: Adobe Illustrator 29.1.0, SVG Export Plug-In . SVG Version: 2.1.0 Build 142)  -->
  <defs>
    <style>
      .st0 {
        fill: #181717;
      }

      .st1 {
        fill: #fff;
      }
    </style>
  </defs>
  <rect class="st0" x="1.7" y="2.1" width="443.7" height="443.7" rx="76.8" ry="76.8"/>
  <path class="st1" d="M287.7,432.9c-11.2,0-13.7-5.2-13.7-10.3l.9-60.1c0-20.6-6.9-34.4-15.5-41.2,49-5.2,100.5-24,100.5-108.2s-8.6-43.8-22.3-59.3c2.6-5.2,9.4-27.5-2.6-57.5,0,0-18-6-60.1,22.3-36.1-10.3-73.9-10.3-109.9,0-42.1-28.3-60.1-22.3-60.1-22.3-12,30.1-5.2,52.4-2.6,57.5-13.7,15.5-22.3,35.2-22.3,59.3,0,84.2,50.7,103.1,99.6,108.2-6,6-12,15.5-13.7,30.1-12.9,5.2-44.7,14.6-63.6-18.9,0,0-12-20.6-34.4-22.3,0,0-21.5,0-.9,13.7,0,0,13.7,6,24,31.8,0,0,12.9,42.9,73.9,29.2l.9,37.8c0,5.2-2.6,10.3-13.7,10.3s-10.3,14.6-10.3,14.6h156.3s1.7-14.6-10.3-14.6Z"/>
</svg>