<?xml version="1.0" encoding="UTF-8"?>
<svg id="Layer_1" xmlns="http://www.w3.org/2000/svg" version="1.1" viewBox="0 0 48 48">
  <!-- Generator: Adobe Illustrator 29.1.0, SVG Export Plug-In . SVG Version: 2.1.0 Build 142)  -->
  <defs>
    <style>
      .st0 {
        fill: #fff;
      }
    </style>
  </defs>
  <rect width="48" height="48" rx="8" ry="8"/>
  <path class="st0" d="M16.5,14.2c-5.4,0-9.8,4.4-9.8,9.8s4.4,9.8,9.8,9.8,9.8-4.4,9.8-9.8-4.4-9.8-9.8-9.8ZM32,14.7c-2.7,0-4.9,4.1-4.9,9.3s2.2,9.3,4.9,9.3,4.9-4.1,4.9-9.3h0c0-5.1-2.2-9.3-4.9-9.3ZM39.6,15.7c-.9,0-1.7,3.7-1.7,8.3s.8,8.3,1.7,8.3,1.7-3.7,1.7-8.3-.8-8.3-1.7-8.3Z"/>
</svg>