<?xml version="1.0" encoding="UTF-8"?>
<svg id="Layer_1" xmlns="http://www.w3.org/2000/svg" version="1.1" viewBox="0 0 640 512">
  <!-- Generator: Adobe Illustrator 29.1.0, SVG Export Plug-In . SVG Version: 2.1.0 Build 142)  -->
  <defs>
    <style>
      .st0 {
        fill: #737373;
      }
    </style>
  </defs>
  <path class="st0" d="M524.5,69.8c-.2-.3-.5-.6-.8-.7-38.1-17.5-78.3-30-119.6-37.1-.8-.1-1.5.2-1.9.9-5.5,9.9-10.5,20.2-14.9,30.6-44.5-6.8-89.9-6.8-134.4,0-4.5-10.5-9.5-20.7-15.1-30.6-.4-.7-1.1-1-1.9-.9-41.4,7.1-81.6,19.6-119.8,37.1-.3.1-.6.4-.8.7C39.1,183.7,18.2,294.7,28.4,404.4c0,.6.3,1.1.8,1.4,44.4,32.8,94,57.9,146.8,74.1.8.2,1.6,0,2.1-.7,11.3-15.4,21.4-31.7,30-48.8.5-.9,0-2.1-.9-2.5,0,0,0,0-.1,0-15.9-6.1-31.2-13.4-45.9-21.9-.9-.5-1.2-1.7-.6-2.6.1-.2.3-.4.4-.5,3.1-2.3,6.2-4.7,9.1-7.1.5-.5,1.3-.6,1.9-.3,96.2,43.9,200.4,43.9,295.5,0,.6-.3,1.4-.2,1.9.2,2.9,2.4,6,4.9,9.1,7.2.8.7.9,1.9.3,2.7-.1.2-.3.3-.5.4-14.7,8.5-30,15.8-45.9,21.8-1,.4-1.4,1.5-1.1,2.5,0,0,0,0,0,.1,8.8,17,18.8,33.3,30,48.8.5.7,1.3.9,2.1.7,52.9-16.1,102.7-41.2,147.2-74.1.5-.3.8-.8.8-1.4,12.2-126.7-20.6-236.8-87-334.5ZM222.5,337.6c-29,0-52.8-26.6-52.8-59.2s23.4-59.3,52.8-59.3,53.3,26.8,52.8,59.2c0,32.7-23.4,59.3-52.8,59.3ZM417.9,337.6c-29,0-52.8-26.6-52.8-59.2s23.3-59.3,52.8-59.3,53.3,26.8,52.8,59.2c0,32.7-23.2,59.3-52.8,59.3Z"/>
</svg>