<?xml version="1.0" encoding="UTF-8"?>
<svg id="Layer_1" xmlns="http://www.w3.org/2000/svg" version="1.1" viewBox="0 0 496 512">
  <!-- Generator: Adobe Illustrator 29.1.0, SVG Export Plug-In . SVG Version: 2.1.0 Build 142)  -->
  <defs>
    <style>
      .st0 {
        fill: #737373;
      }
    </style>
  </defs>
  <path class="st0" d="M248,8C111,8,0,119,0,256s111,248,248,248,248-111,248-248S385,8,248,8ZM363,176.7c-3.7,39.2-19.9,134.4-28.1,178.3-3.5,18.6-10.3,24.8-16.9,25.4-14.4,1.3-25.3-9.5-39.3-18.7-21.8-14.3-34.2-23.2-55.3-37.2-24.5-16.1-8.6-25,5.3-39.5,3.7-3.8,67.1-61.5,68.3-66.7.2-.7.3-3.1-1.2-4.4s-3.6-.8-5.1-.5c-2.2.5-37.1,23.5-104.6,69.1-9.9,6.8-18.8,10.1-26.9,9.9-8.9-.2-25.9-5-38.6-9.1-15.5-5-27.9-7.7-26.8-16.3.5-4.5,6.7-9,18.5-13.7,72.3-31.5,120.5-52.2,144.6-62.3,68.9-28.6,83.2-33.6,92.5-33.8,2.1,0,6.6.5,9.6,2.9,2,1.7,3.2,4.1,3.5,6.7.5,3.3.7,6.6.5,9.9Z"/>
</svg>