<?xml version="1.0" encoding="UTF-8"?>
<svg id="Layer_1" xmlns="http://www.w3.org/2000/svg" version="1.1" viewBox="0 0 576 512">
  <!-- Generator: Adobe Illustrator 29.1.0, SVG Export Plug-In . SVG Version: 2.1.0 Build 142)  -->
  <defs>
    <style>
      .st0 {
        fill: #737373;
      }
    </style>
  </defs>
  <path class="st0" d="M232,237.2c31.8-15.2,48.4-38.2,48.4-74,0-70.6-52.6-87.8-113.3-87.8H0v354.4h171.8c64.4,0,124.9-30.9,124.9-102.9s-21.1-77.4-64.7-89.7h0ZM77.9,135.9h73.1c28.1,0,53.4,7.9,53.4,40.5s-19.7,42.2-47.5,42.2h-79s0-82.7,0-82.7ZM161.2,369.6h-83.3v-97.6h84.9c34.3,0,56,14.3,56,50.6s-25.9,47-57.6,47h0ZM519.7,128.9h-143.7v-34.9h143.7v34.9h0ZM576,305.2c0-75.9-44.4-139.2-124.9-139.2s-131.3,58.8-131.3,135.8,50.3,134.7,131.3,134.7,101-27.6,120.1-86.3h-62.2c-6.7,21.9-34.3,33.5-55.7,33.5-41.3,0-63-24.2-63-65.3h185.1c.3-4.2.6-8.7.6-13.2ZM390.4,274c2.3-33.7,24.7-54.8,58.5-54.8s53.2,20.8,56.2,54.8h-114.7Z"/>
</svg>