<?xml version="1.0" encoding="UTF-8"?>
<svg id="Layer_1" xmlns="http://www.w3.org/2000/svg" version="1.1" viewBox="0 0 447.5 447.5">
  <!-- Generator: Adobe Illustrator 29.1.0, SVG Export Plug-In . SVG Version: 2.1.0 Build 142)  -->
  <defs>
    <style>
      .st0 {
        fill: #0a66c2;
      }

      .st1 {
        fill: #fff;
      }
    </style>
  </defs>
  <rect class="st0" x="1.7" y="2.1" width="443.7" height="443.7" rx="76.8" ry="76.8"/>
  <g>
    <rect class="st1" x="65.6" y="68.9" width="315.1" height="315.1"/>
    <path class="st0" d="M409.1,79.6v288.3c0,22.7-18.4,41.2-41.2,41.2H79.6c-22.7,0-41.2-18.4-41.2-41.2V79.6c0-22.7,18.4-41.2,41.2-41.2h288.3c22.7,0,41.2,18.4,41.2,41.2ZM357.6,357.6v-109.1c0-37.1-30-67.1-67.1-67.1s-18.2,2.7-26.8,7.3c-8.5,4.7-16.1,11.4-21,19.4v-22.9h-57.5v172.4h57.5v-101.5c0-15.9,12.9-28.7,28.7-28.7s28.7,12.8,28.7,28.7h0v101.5h57.5ZM152.9,118.3c0-19.2-15.4-34.8-34.6-34.8-19.2,0-34.8,15.4-34.8,34.6,0,19.2,15.4,34.8,34.6,34.8h.2c19.1,0,34.6-15.5,34.6-34.6ZM146.9,357.6v-172.4h-57v172.4h57Z"/>
  </g>
</svg>