<?xml version="1.0" encoding="UTF-8"?>
<svg id="Layer_1" xmlns="http://www.w3.org/2000/svg" version="1.1" viewBox="0 0 640 512">
  <!-- Generator: Adobe Illustrator 29.1.0, SVG Export Plug-In . SVG Version: 2.1.0 Build 142)  -->
  <defs>
    <style>
      .st0 {
        fill: #737373;
      }
    </style>
  </defs>
  <path class="st0" d="M180.5,74.3C80.8,74.3,0,155.6,0,256s80.8,181.7,180.5,181.7,180.5-81.3,180.5-181.7-80.8-181.7-180.5-181.7ZM468.8,84.9c-49.8,0-90.2,76.6-90.2,171.1s40.4,171.1,90.3,171.1,90.3-76.6,90.3-171.1h-.2c0-94.5-40.4-171.1-90.2-171.1ZM608.3,102.7c-17.5,0-31.7,68.6-31.7,153.3s14.2,153.3,31.7,153.3,31.7-68.7,31.7-153.3-14.2-153.3-31.7-153.3Z"/>
</svg>