<?xml version="1.0" encoding="UTF-8"?>
<svg id="Layer_1" xmlns="http://www.w3.org/2000/svg" xmlns:xlink="http://www.w3.org/1999/xlink" version="1.1" viewBox="0 0 447.5 447.5">
  <!-- Generator: Adobe Illustrator 29.1.0, SVG Export Plug-In . SVG Version: 2.1.0 Build 142)  -->
  <defs>
    <style>
      .st0 {
        fill: none;
      }

      .st1 {
        fill: #121328;
      }

      .st2 {
        fill: #fff;
      }

      .st3 {
        clip-path: url(#clippath);
      }
    </style>
    <clipPath id="clippath">
      <rect class="st0" x="56.2" y="59.3" width="334.7" height="334.7"/>
    </clipPath>
  </defs>
  <path class="st1" d="M337.1,0H110.4C47.9,0-2.9,50.7-2.9,113.3v226.6c0,62.6,50.7,113.3,113.3,113.3h226.6c62.6,0,113.3-50.7,113.3-113.3V113.3c0-62.6-50.7-113.3-113.3-113.3Z"/>
  <g class="st3">
    <path class="st2" d="M333.5,113.8c-1.8,0-3.5.6-4.9,1.7-1.1,1.1-2.3,2.7-2.3,4.4,0,2.8,3.3,6.6,9.4,12.9,25.4,24.5,38.2,54.4,38.1,90.6,0,39.9-13.5,72.1-39.7,96.9-5.5,4.9-7.7,8.8-7.8,12.1,0,1.6,1.1,3.3,2.2,4.9,1.3,1.3,3.1,2.1,4.9,2.3,6.1,0,14.5-7.2,25.6-21,21.5-26.4,31.2-55.5,31.8-95.2.5-39.7-12-66.6-36.3-94.4-8.8-9.9-16.1-15.1-21.1-15.1ZM113.6,113.8c-5,0-12.3,5.2-21.1,15.1-24.4,27.8-36.8,54.7-36.3,94.4.5,39.7,10.3,68.8,31.8,95.1,11,13.9,19.5,21.1,25.5,21,1.9-.2,3.6-1,4.9-2.3,1.1-1.6,2.2-3.3,2.2-4.9,0-3.3-2.3-7.2-7.7-12.1-26.1-24.9-39.6-57-39.7-96.9,0-36.1,12.7-66.1,38.1-90.6,6.1-6.3,9.4-10.1,9.4-12.9,0-1.6-1.1-3.2-2.3-4.4-1.4-1.1-3.2-1.6-4.9-1.7h0ZM212,126.3s9.1,29-36.9,93.8c-44,61.8,14.6,99.7,20,103-3.9-2.5-27.9-20.9,5.6-75.6,6.5-10.7,15-20.5,25.6-42.4,0,0,9.3,13.2,4.5,41.8-7.3,43.2,31.7,30.9,32.3,31.5,13.6,16-11.3,44.2-12.8,45.1-1.5.8,71.1-43.7,19.5-110.6-3.5,3.5-8.1,20.1-17.7,17.7-9.5-2.4,29.6-48.7-40-104.1ZM195,323.1l.5.3-.5-.3Z"/>
  </g>
</svg>