<?xml version="1.0" encoding="UTF-8"?>
<svg id="Layer_1" xmlns="http://www.w3.org/2000/svg" version="1.1" viewBox="0 0 448 512">
  <!-- Generator: Adobe Illustrator 29.1.0, SVG Export Plug-In . SVG Version: 2.1.0 Build 142)  -->
  <defs>
    <style>
      .st0 {
        fill: #737373;
      }
    </style>
  </defs>
  <path class="st0" d="M257.2,162.7c-48.7,1.8-169.5,15.5-169.5,117.5s138.3,114,183.5,43.2c6.5,10.2,35.4,37.5,45.3,46.8l56.8-56s-32.3-25.3-32.3-52.8V114.3c0-25.3-24.5-82.3-112.3-82.3s-134.7,55-134.7,104.3l73.5,6.8c16.3-49.5,54.2-49.5,54.2-49.5,40.7,0,35.5,29.8,35.5,69.1h0ZM257.2,249.5c0,80-84.2,68-84.2,17.2s50.5-56.7,84.2-57.8v40.6ZM393.2,413c-7.7,10-70,67-174.5,67S34.2,408.5,9.7,379c-6.8-7.7,1-11.3,5.5-8.3,73.3,44.5,187.8,117.8,372.5,30.3,7.5-3.7,13.3,2,5.5,12ZM433,415.2c-6.5,15.8-16,26.8-21.2,31-5.5,4.5-9.5,2.7-6.5-3.8s19.3-46.5,12.7-55c-6.5-8.3-37-4.3-48-3.2-10.8,1-13,2-14-.3-2.3-5.7,21.7-15.5,37.5-17.5,15.7-1.8,41-.8,46,5.7,3.7,5.1,0,27.1-6.5,43.1h0Z"/>
</svg>