<?xml version="1.0" encoding="UTF-8"?>
<svg id="Layer_1" xmlns="http://www.w3.org/2000/svg" version="1.1" viewBox="0 0 40 40">
  <!-- Generator: Adobe Illustrator 29.1.0, SVG Export Plug-In . SVG Version: 2.1.0 Build 142)  -->
  <defs>
    <style>
      .st0 {
        fill: #3f54a3;
      }

      .st1 {
        fill: #67bece;
      }

      .st2 {
        fill: #fff;
      }

      .st3 {
        fill: #ebeef1;
      }
    </style>
  </defs>
  <path class="st2" d="M0,8C0,3.6,3.6,0,8,0h24c4.4,0,8,3.6,8,8v24c0,4.4-3.6,8-8,8H8c-4.4,0-8-3.6-8-8V8Z"/>
  <path class="st3" d="M8,.8h24V-.8H8V.8ZM39.2,8v24h1.7V8h-1.7ZM32,39.2H8v1.7h24v-1.7ZM.8,32V8H-.8v24H.8ZM8,39.2c-4,0-7.2-3.2-7.2-7.2H-.8c0,4.9,4,8.8,8.8,8.8v-1.7ZM39.2,32c0,4-3.2,7.2-7.2,7.2v1.7c4.9,0,8.8-4,8.8-8.8h-1.7ZM32,.8c4,0,7.2,3.2,7.2,7.2h1.7c0-4.9-4-8.8-8.8-8.8V.8ZM8-.8C3.1-.8-.8,3.1-.8,8H.8C.8,4,4,.8,8,.8V-.8Z"/>
  <g>
    <path class="st1" d="M32.6,21.3c-.1,0-.2,0-.4,0l-7.4-3.3c-.4-.2-.6-.7-.4-1.1,0-.2.2-.3.4-.4l7.4-3.3c.4-.2.9,0,1.1.4.2.4,0,.9-.4,1.1l-5.6,2.5,5.6,2.5c.4.2.6.7.4,1.1-.1.3-.4.5-.8.5Z"/>
    <path class="st0" d="M22.6,33.3c-8.1,0-15.3-5.5-17.3-13.4-.1-.5.2-.9.6-1.1s.9.2,1.1.6c1.9,7.1,8.3,12.1,15.6,12.1.5,0,.9.4.9.9s-.4.9-.9.9Z"/>
    <path class="st1" d="M19.6,26.1c-.5,0-.9-.4-.9-.9V8.9c0-.5.4-.9.9-.9s.9.4.9.9v16.4c0,.5-.4.9-.9.9Z"/>
  </g>
</svg>