<?xml version="1.0" encoding="UTF-8"?>
<svg id="Layer_1" xmlns="http://www.w3.org/2000/svg" version="1.1" viewBox="0 0 32 32">
  <!-- Generator: Adobe Illustrator 29.1.0, SVG Export Plug-In . SVG Version: 2.1.0 Build 142)  -->
  <defs>
    <style>
      .st0 {
        fill: #633cff;
        fill-rule: evenodd;
      }
    </style>
  </defs>
  <path class="st0" d="M4.6,27.4c2,2,5.1,2,11.4,2s9.4,0,11.4-2c2-2,2-5.1,2-11.4s0-9.4-2-11.4c-2-2-5.1-2-11.4-2s-9.4,0-11.4,2c-2,2-2,5.1-2,11.4s0,9.4,2,11.4h0ZM12.7,11.7c-2.4,0-4.3,1.9-4.3,4.3,0,2.4,1.9,4.3,4.3,4.3,2.4,0,4.3-1.9,4.3-4.3s.4-1,1-1,1,.4,1,1c0,3.5-2.8,6.3-6.3,6.3s-6.3-2.8-6.3-6.3c0-3.5,2.8-6.3,6.3-6.3.6,0,1,.4,1,1s-.4,1-1,1h0ZM23.7,16c0,2.4-1.9,4.3-4.3,4.3h0c-.6,0-1,.4-1,1s.4,1,1,1c3.5,0,6.3-2.8,6.3-6.3s-2.8-6.3-6.3-6.3-6.3,2.8-6.3,6.3h0c0,.6.4,1,1,1s1-.4,1-1c0-2.4,2-4.3,4.4-4.2,2.3,0,4.2,1.9,4.2,4.2Z"/>
</svg>